<?xml version="1.0"?>
<svg xmlns="http://www.w3.org/2000/svg" xmlns:xlink="http://www.w3.org/1999/xlink" version="1.1" id="Layer_1" x="0px" y="0px" viewBox="0 0 300.439 300.439" style="enable-background:new 0 0 300.439 300.439;" xml:space="preserve" width="512px" height="512px" class=""><g><g>
	<path style="fill:#69E781" d="M276.967,0h-84.498L70.415,178.385h84.498L276.967,0z" data-original="#BF392C" class="active-path" data-old_color="#BF392C"/>
	<path style="fill:#69E781" d="M23.472,0h84.498l122.053,178.385h-84.498L23.472,0z" data-original="#E2574C" class="" data-old_color="#E2574C"/>
	<path style="fill:#EB7D16" d="M154.914,93.887c57.271,0,103.276,46.005,103.276,103.276s-46.005,103.276-103.276,103.276   S51.638,254.434,51.638,197.163S97.643,93.887,154.914,93.887z" data-original="#EFC75E" class="" data-old_color="#EFC75E"/>
	<path style="fill:#754100" d="M154.914,122.053c-41.31,0-75.11,33.799-75.11,75.11s33.799,75.11,75.11,75.11   s75.11-33.799,75.11-75.11S196.224,122.053,154.914,122.053z M154.914,253.495c-30.983,0-56.332-25.35-56.332-56.332   s25.35-56.332,56.332-56.332s56.332,25.35,56.332,56.332S185.896,253.495,154.914,253.495z" data-original="#D7B354" class="" data-old_color="#D7B354"/>
</g></g> </svg>
